Coordinates

Units are S.I. units (second, meters, Newtons, ...)
If the header above contains a line with 'inDegrees', this indicates whether rotational values are in degrees (yes) or radians (no).

inDegrees=no
nColumns=21
nRows=15
DataType=double
version=3
OpenSimVersion=4.6-2026-03-31-d6972f9e6
endheader
time	/jointset/ground_pelvis/pelvis_tilt/value	/jointset/ground_pelvis/pelvis_list/value	/jointset/ground_pelvis/pelvis_rotation/value	/jointset/ground_pelvis/pelvis_tx/value	/jointset/ground_pelvis/pelvis_ty/value	/jointset/ground_pelvis/pelvis_tz/value	/jointset/hip_r/hip_flexion_r/value	/jointset/hip_r/hip_adduction_r/value	/jointset/hip_r/hip_rotation_r/value	/jointset/walker_knee_r/knee_angle_r/value	/jointset/patellofemoral_r/knee_angle_r_beta/value	/jointset/ankle_r/ankle_angle_r/value	/jointset/subtalar_r/subtalar_angle_r/value	/jointset/hip_l/hip_flexion_l/value	/jointset/hip_l/hip_adduction_l/value	/jointset/hip_l/hip_rotation_l/value	/jointset/walker_knee_l/knee_angle_l/value	/jointset/patellofemoral_l/knee_angle_l_beta/value	/jointset/ankle_l/ankle_angle_l/value	/jointset/subtalar_l/subtalar_angle_l/value
142.496	-0.147703654637156	-0.09213273354404632	-0.06942864764202124	1.298794876367768	0.9008881832518467	-0.3700419666702852	0.5535141603122237	0.1439244790866473	-0.007429110433454056	0.736199088043279	0.7361990873144646	0.2062565609042705	-0.2293771798652277	0.3199069897086556	-0.2147924941278175	-0.0176598605848011	1.404980094489543	1.404980095421086	-0.4149048545801853	-0.4147736872472534
142.5	-0.1471374251025823	-0.0934502285857861	-0.07099997909082868	1.297892436071827	0.8995596390673821	-0.3698637366579852	0.5462643283761834	0.1446199945083421	-0.009490539621332639	0.7496113030424998	0.7496113021272708	0.2251342107295574	-0.2238256055976039	0.3413957736306272	-0.217533393685105	-0.01318441045216449	1.424014668712862	1.424014669641734	-0.401164382262587	-0.4129871216284915
142.504	-0.1463134643989862	-0.09412344225607487	-0.07203911123176911	1.297036568290012	0.8985525361632737	-0.3697020120234856	0.5368365710385585	0.1443278686573148	-0.01169117616695531	0.7598329059490885	0.7598329048634618	0.2434029141858167	-0.2173841294480848	0.362362923798304	-0.2190374933242359	-0.008338733779795068	1.440842141949081	1.440842142865504	-0.3875725603042018	-0.4110925775474947
142.508	-0.1452248625275791	-0.0941335083114913	-0.07253888555885551	1.296233092452694	0.8978711806371215	-0.3695580370329016	0.5252319245580777	0.1430650427161721	-0.01395570862555521	0.7668420050763416	0.7668420038460227	0.260824896278545	-0.2102367640357276	0.3827290990186534	-0.2192697474950439	-0.003211473056312193	1.455408454395384	1.455408455290584	-0.3741692864510748	-0.4090961744426397
142.512	-0.1438793977361442	-0.09347692289304836	-0.07249970475081113	1.29548684796709	0.8975147257277707	-0.3694328817118449	0.51149562360684	0.1408718035792879	-0.01621496732272672	0.7706621076174031	0.7706621062769807	0.2771725251001907	-0.2025720663171907	0.4024330079896547	-0.2182232317655225	0.002107069509289409	1.467679673985337	1.467679674853453	-0.3609879555962722	-0.4069928807763629
142.516	-0.1422992360763548	-0.09216587565305732	-0.07192857100326723	1.294801664315381	0.8974774765024836	-0.3693274863931456	0.4957144450609639	0.1378104836370182	-0.01840715586341292	0.771358838574153	0.7713588371660232	0.2922295792041593	-0.194579826233176	0.4214321367345015	-0.2159190049371388	0.00752835214895347	1.477641395933203	1.477641396772962	-0.3480564040501202	-0.4047692333797424
142.52	-0.1405199972991562	-0.09022793893074177	-0.0708380342419178	1.294180364791891	0.8977493365319533	-0.3692427149936606	0.4780127840704568	0.1339632870041783	-0.02047867829719904	0.7690358620625535	0.7690358606354164	0.3057922628572641	-0.1864476475513014	0.4397026085055755	-0.2124048055811882	0.01296863658106406	1.485297499766565	1.485297500582164	-0.3353981274179086	-0.4024065280766972
142.524	-0.1385893070023513	-0.08770511883473139	-0.06924509907899386	1.293624798921584	0.8983163610610938	-0.3691794153307364	0.4585477757652003	0.1294292963031784	-0.02238466239873443	0.7638302392644178	0.7638302378712056	0.3176701591965106	-0.1783572668005626	0.45723828912229	-0.2077526578948794	0.01835155748338521	1.490668375310955	1.490668376111794	-0.3230336230115822	-0.3998842070793294
142.528	-0.1365649002327492	-0.08465230069303097	-0.06717016589860039	1.293135899792373	0.8991613883573223	-0.3691384786669663	0.4375036916191474	0.1243207953130765	-0.0240892024767567	0.7559074110996619	0.7559074097948491	0.3276872044766467	-0.1704806803329197	0.4740491663286096	-0.2020555394135136	0.02361008592018168	1.493788700495014	1.493788701294377	-0.3109818126515764	-0.3971833151571561
142.532	-0.1345123017475737	-0.08113513701289932	-0.06463607427980962	1.292713762830947	0.9002647251806583	-0.3691208911083411	0.4150857847609353	0.1187590520472564	-0.02556535606481112	0.7454559848491352	0.7454559836855591	0.3356827822498975	-0.1629761334425099	0.4901589861640195	-0.1954232905211327	0.02868778388203905	1.494704851230866	1.494704852043835	-0.2992614438860216	-0.3942898367343881
142.536	-0.1325021410161474	-0.07722745840141855	-0.06166728058449773	1.292357741118785	0.9016048594940755	-0.3691277738610452	0.3915137896711692	0.1128697053295586	-0.02679499713288238	0.7326825040768258	0.7326825031023382	0.3415130595522637	-0.1559839457751493	0.5056021993056999	-0.1879779654155511	0.03353934251392587	1.493472049967689	1.493472050808557	-0.2878922946769836	-0.3911976231795015
142.54	-0.130607234047365	-0.07300832698679277	-0.05828918090470943	1.292066551245419	0.9031591704652496	-0.3691604097014291	0.3670153362916236	0.1067779477774751	-0.02776862092920724	0.7178063362558033	0.717806335510208	0.3450525685154525	-0.1496223046455392	0.5204203869606239	-0.1798488588377583	0.03813046564341612	1.490151368865798	1.490151369745344	-0.2768961062136476	-0.3879107233599756
142.544	-0.1288996153849984	-0.06855887518198775	-0.0545275936282229	1.291838384103809	0.9049046064584921	-0.3692202509914754	0.3418195578772852	0.1006037472644772	-0.0284851337252676	0.70105476013076	0.7010547596434914	0.3461959043028246	-0.143983345529003	0.5346584096999363	-0.1711674655618242	0.0424371856890863	1.484806695740824	1.484806696664001	-0.2662972844190253	-0.3844450792241794
142.548	-0.1274477217839944	-0.06395907602318754	-0.05040842697865648	1.291671015229266	0.9068183030406024	-0.3693089040624568	0.3161511745689826	0.09445735029608789	-0.02895161318117715	0.6826583331955665	0.6826583329843826	0.3448593875270003	-0.1391298365145282	0.5483605527881396	-0.1620626241403875	0.04644471044371566	1.477501774083255	1.477501775047817	-0.2561234001396013	-0.38082956739505
142.552	-0.1263138819668612	-0.05928459914315888	-0.04595754084271904	1.291561910040259	0.9088781194646649	-0.3694280876698667	0.2902252645385194	0.08843529038900358	-0.02918302451696819	0.6628466181451665	0.6628466182157959	0.3409825627846184	-0.1350926982388187	0.5615668991003874	-0.1526560747064724	0.05014592839728225	1.468297430870509	1.468297431866776	-0.2464054765254248	-0.3771063448719224
